<?xml version="1.0" encoding="UTF-8" standalone="no"?>
<!-- Generator: Adobe Illustrator 12.0.1, SVG Export Plug-In . SVG Version: 6.00 Build 51448)  -->
<svg
   xmlns:dc="http://purl.org/dc/elements/1.1/"
   xmlns:cc="http://web.resource.org/cc/"
   xmlns:rdf="http://www.w3.org/1999/02/22-rdf-syntax-ns#"
   xmlns:svg="http://www.w3.org/2000/svg"
   xmlns="http://www.w3.org/2000/svg"
   xmlns:sodipodi="http://sodipodi.sourceforge.net/DTD/sodipodi-0.dtd"
   xmlns:inkscape="http://www.inkscape.org/namespaces/inkscape"
   version="1.1"
   id="Layer_1"
   width="97.492"
   height="136.237"
   viewBox="0 0 97.492 136.237"
   style="overflow:visible;enable-background:new 0 0 97.492 136.237;"
   xml:space="preserve"
   sodipodi:version="0.32"
   inkscape:version="0.45.1"
   sodipodi:docname="Acetal allgemein2.svg"
   inkscape:output_extension="org.inkscape.output.svg.inkscape"
   sodipodi:docbase="C:\"><metadata
   id="metadata52"><rdf:RDF><cc:Work
       rdf:about=""><dc:format>image/svg+xml</dc:format><dc:type
         rdf:resource="http://purl.org/dc/dcmitype/StillImage" /></cc:Work></rdf:RDF></metadata><defs
   id="defs50" /><sodipodi:namedview
   inkscape:window-height="579"
   inkscape:window-width="801"
   inkscape:pageshadow="2"
   inkscape:pageopacity="0.0"
   guidetolerance="10.0"
   gridtolerance="10.0"
   objecttolerance="10.0"
   borderopacity="1.0"
   bordercolor="#666666"
   pagecolor="#ffffff"
   id="base"
   inkscape:zoom="2.7745767"
   inkscape:cx="48.745998"
   inkscape:cy="68.1185"
   inkscape:window-x="132"
   inkscape:window-y="132"
   inkscape:current-layer="Layer_1" />
<g
   id="g3"
   transform="matrix(0.95,0,0,0.95,2.4373,3.405975)">
	<path
   style="fill:#231f20"
   d="M 38.916,28.622 C 38.916,25.769 39.682,23.537 41.214,21.924 C 42.746,20.31 44.724,19.503 47.147,19.503 C 48.734,19.503 50.164,19.882 51.438,20.64 C 52.712,21.399 53.683,22.455 54.352,23.811 C 55.021,25.167 55.355,26.705 55.355,28.423 C 55.355,30.166 55.003,31.725 54.299,33.1 C 53.595,34.475 52.599,35.517 51.309,36.224 C 50.019,36.931 48.628,37.285 47.135,37.285 C 45.517,37.285 44.071,36.894 42.797,36.113 C 41.523,35.332 40.558,34.264 39.901,32.913 C 39.244,31.562 38.916,30.131 38.916,28.622 z M 41.259,28.651 C 41.259,30.721 41.816,32.352 42.93,33.544 C 44.044,34.736 45.442,35.331 47.122,35.331 C 48.834,35.331 50.243,34.729 51.35,33.526 C 52.456,32.323 53.009,30.616 53.009,28.405 C 53.009,27.007 52.773,25.786 52.3,24.743 C 51.827,23.7 51.135,22.891 50.224,22.317 C 49.313,21.743 48.291,21.456 47.158,21.456 C 45.548,21.456 44.162,22.009 43.001,23.114 C 41.84,24.219 41.259,26.065 41.259,28.651 z "
   id="path5" />
</g>
<g
   id="g7"
   transform="matrix(0.95,0,0,0.95,2.4373,3.405975)">
	<path
   style="fill:#231f20"
   d="M 52.603,70.66 L 54.885,71.234 C 54.408,73.104 53.552,74.53 52.315,75.511 C 51.078,76.492 49.565,76.984 47.778,76.984 C 45.928,76.984 44.424,76.607 43.265,75.852 C 42.106,75.098 41.224,74.004 40.619,72.574 C 40.014,71.143 39.712,69.606 39.712,67.965 C 39.712,66.175 40.053,64.612 40.736,63.279 C 41.419,61.946 42.39,60.932 43.651,60.241 C 44.911,59.55 46.297,59.203 47.811,59.203 C 49.528,59.203 50.971,59.641 52.141,60.517 C 53.312,61.394 54.127,62.625 54.588,64.214 L 52.353,64.741 C 51.955,63.491 51.378,62.581 50.622,62.011 C 49.865,61.441 48.913,61.156 47.767,61.156 C 46.449,61.156 45.347,61.472 44.461,62.105 C 43.576,62.738 42.954,63.587 42.595,64.654 C 42.236,65.721 42.057,66.82 42.057,67.953 C 42.057,69.414 42.269,70.689 42.694,71.779 C 43.119,72.869 43.779,73.683 44.676,74.222 C 45.573,74.761 46.543,75.031 47.588,75.031 C 48.859,75.031 49.934,74.664 50.815,73.929 C 51.696,73.194 52.291,72.105 52.603,70.66 z "
   id="path9" />
</g>
<path
   style="fill:#231f20"
   d="M 46.430848,41.014576 L 48.046798,41.014576 L 48.046798,57.497077 L 46.430848,57.497077 L 46.430848,41.014576 z "
   id="rect11" />
<g
   id="g13"
   transform="matrix(0.95,0,0,0.95,2.4373,3.405975)">
	<path
   style="fill:#231f20"
   d="M 38.916,108.022 C 38.916,105.169 39.682,102.937 41.214,101.324 C 42.746,99.71 44.724,98.903 47.147,98.903 C 48.734,98.903 50.164,99.282 51.438,100.04 C 52.712,100.799 53.683,101.855 54.352,103.211 C 55.021,104.567 55.355,106.105 55.355,107.823 C 55.355,109.566 55.003,111.125 54.299,112.5 C 53.595,113.875 52.599,114.917 51.309,115.624 C 50.019,116.331 48.628,116.685 47.135,116.685 C 45.517,116.685 44.071,116.294 42.797,115.513 C 41.523,114.732 40.558,113.664 39.901,112.313 C 39.244,110.962 38.916,109.531 38.916,108.022 z M 41.259,108.052 C 41.259,110.122 41.816,111.753 42.93,112.945 C 44.044,114.137 45.442,114.732 47.122,114.732 C 48.834,114.732 50.243,114.13 51.35,112.927 C 52.456,111.724 53.009,110.017 53.009,107.806 C 53.009,106.408 52.773,105.187 52.3,104.144 C 51.827,103.101 51.135,102.292 50.224,101.718 C 49.313,101.144 48.291,100.857 47.158,100.857 C 45.548,100.857 44.162,101.41 43.001,102.515 C 41.84,103.62 41.259,105.466 41.259,108.052 z "
   id="path15" />
</g>
<path
   style="fill:#231f20"
   d="M 46.430848,78.681125 L 48.046798,78.681125 L 48.046798,95.211124 L 46.430848,95.211124 L 46.430848,78.681125 z "
   id="rect17" />
<g
   id="g19"
   transform="matrix(0.95,0,0,0.95,2.4373,3.405975)">
	<path
   style="fill:#231f20"
   d="M 80.146,76.688 L 80.146,59.5 L 82.427,59.5 L 82.427,66.563 L 91.318,66.563 L 91.318,59.5 L 93.6,59.5 L 93.6,76.688 L 91.319,76.688 L 91.319,68.594 L 82.428,68.594 L 82.428,76.688 L 80.146,76.688 z "
   id="path21" />
</g>
<path
   style="fill:#231f20"
   d="M 56.78585,66.474575 L 76.403349,66.474575 L 76.403349,68.089576 L 56.78585,68.089576 L 56.78585,66.474575 z "
   id="rect23" />
<g
   id="g25"
   transform="matrix(0.95,0,0,0.95,2.4373,3.405975)">
	<path
   style="fill:#231f20"
   d="M 0,76.688 L 0,59.5 L 7.614,59.5 C 9.142,59.5 10.303,59.654 11.099,59.964 C 11.894,60.273 12.53,60.818 13.005,61.601 C 13.48,62.384 13.718,63.247 13.718,64.194 C 13.718,65.414 13.324,66.443 12.537,67.28 C 11.75,68.117 10.534,68.649 8.888,68.876 C 9.49,69.164 9.946,69.449 10.259,69.73 C 10.923,70.337 11.55,71.099 12.139,72.015 L 15.108,76.688 L 12.268,76.688 L 10,73.115 C 9.337,72.084 8.791,71.296 8.362,70.749 C 7.933,70.202 7.55,69.82 7.21,69.602 C 6.87,69.384 6.526,69.231 6.175,69.145 C 5.917,69.09 5.496,69.063 4.912,69.063 L 2.281,69.063 L 2.281,76.688 L 0,76.688 L 0,76.688 z M 2.281,67.094 L 7.158,67.094 C 8.195,67.094 9.005,66.987 9.589,66.772 C 10.172,66.557 10.616,66.212 10.92,65.74 C 11.223,65.267 11.375,64.754 11.375,64.198 C 11.375,63.385 11.081,62.717 10.493,62.193 C 9.905,61.669 8.976,61.407 7.707,61.407 L 2.281,61.407 L 2.281,67.094 z "
   id="path27" />
</g>
<path
   style="fill:#231f20"
   d="M 19.02335,66.474575 L 38.02335,66.474575 L 38.02335,68.089576 L 19.02335,68.089576 L 19.02335,66.474575 z "
   id="rect29" />
<g
   id="g31"
   transform="matrix(0.95,0,0,0.95,2.4373,3.405975)">
	<path
   style="fill:#231f20"
   d="M 74,17.188 L 74,0 L 81.614,0 C 83.142,0 84.303,0.154 85.099,0.464 C 85.894,0.773 86.529,1.318 87.005,2.101 C 87.48,2.883 87.718,3.747 87.718,4.694 C 87.718,5.914 87.324,6.943 86.536,7.78 C 85.749,8.617 84.533,9.149 82.888,9.376 C 83.49,9.664 83.947,9.949 84.259,10.23 C 84.922,10.837 85.549,11.599 86.139,12.515 L 89.108,17.188 L 86.268,17.188 L 84,13.615 C 83.337,12.584 82.791,11.796 82.362,11.249 C 81.933,10.702 81.549,10.32 81.211,10.102 C 80.871,9.883 80.526,9.731 80.176,9.645 C 79.918,9.59 79.497,9.563 78.912,9.563 L 76.281,9.563 L 76.281,17.188 L 74,17.188 z M 76.281,7.594 L 81.158,7.594 C 82.195,7.594 83.005,7.487 83.589,7.272 C 84.172,7.057 84.616,6.712 84.92,6.24 C 85.223,5.767 85.375,5.254 85.375,4.698 C 85.375,3.885 85.081,3.217 84.493,2.693 C 83.905,2.169 82.976,1.907 81.707,1.907 L 76.281,1.907 L 76.281,7.594 L 76.281,7.594 z "
   id="path33" />
	<path
   style="fill:#231f20"
   d="M 91.044,6.078 L 90.504,2.869 L 90.504,0 L 92.91,0 L 92.91,2.869 L 92.347,6.078 L 91.044,6.078 z "
   id="path35" />
	<path
   style="fill:#231f20"
   d="M 95.626,6.078 L 95.086,2.869 L 95.086,0 L 97.492,0 L 97.492,2.869 L 96.929,6.078 L 95.626,6.078 z "
   id="path37" />
</g>
<path
   style="fill:#231f20"
   d="M 68.99335,16.077075 L 69.8018,17.502075 L 56.2643,25.291125 L 55.45585,23.914575 L 68.99335,16.077075 z "
   id="polygon39" />
<g
   id="g41"
   transform="matrix(0.95,0,0,0.95,2.4373,3.405975)">
	<path
   style="fill:#231f20"
   d="M 74.051,136.237 L 74.051,119.05 L 81.664,119.05 C 83.192,119.05 84.353,119.204 85.149,119.514 C 85.945,119.823 86.58,120.368 87.055,121.151 C 87.53,121.934 87.769,122.797 87.769,123.744 C 87.769,124.964 87.374,125.993 86.587,126.83 C 85.8,127.667 84.583,128.199 82.939,128.426 C 83.541,128.714 83.997,128.999 84.309,129.28 C 84.972,129.887 85.599,130.649 86.189,131.565 L 89.158,136.238 L 86.318,136.238 L 84.05,132.666 C 83.386,131.635 82.841,130.847 82.411,130.3 C 81.983,129.753 81.598,129.371 81.26,129.153 C 80.922,128.935 80.575,128.782 80.226,128.696 C 79.968,128.641 79.546,128.614 78.962,128.614 L 76.331,128.614 L 76.331,136.239 L 74.051,136.239 L 74.051,136.237 z M 76.332,126.644 L 81.209,126.644 C 82.245,126.644 83.055,126.537 83.639,126.322 C 84.223,126.107 84.666,125.762 84.971,125.29 C 85.274,124.817 85.426,124.304 85.426,123.748 C 85.426,122.935 85.131,122.267 84.543,121.743 C 83.955,121.219 83.027,120.957 81.758,120.957 L 76.332,120.957 L 76.332,126.644 z "
   id="path43" />
	<path
   style="fill:#231f20"
   d="M 91.094,125.128 L 90.555,121.919 L 90.555,119.05 L 92.961,119.05 L 92.961,121.919 L 92.397,125.128 L 91.094,125.128 z "
   id="path45" />
</g>
<path
   style="fill:#231f20"
   d="M 69.8968,117.15612 L 69.0893,118.53457 L 56.16835,111.07707 L 56.9768,109.69957 L 69.8968,117.15612 z "
   id="polygon47" />
</svg>